<svg version="1.1" xmlns="http://www.w3.org/2000/svg" xmlns:xlink="http://www.w3.org/1999/xlink" x="0px" y="0px"
	 width="202.656px" height="228.647px" viewBox="0 0 202.656 228.647" enable-background="new 0 0 202.656 228.647"
	 xml:space="preserve">
<g>
	<linearGradient id="SVGID_1_" gradientUnits="userSpaceOnUse" x1="25.6494" y1="13.8262" x2="177.104" y2="214.8133">
		<stop  offset="0.2553" style="stop-color:#000000"/>
		<stop  offset="1" style="stop-color:#000000;stop-opacity:0"/>
	</linearGradient>
	<path opacity="0.04" fill="url(#SVGID_1_)" d="M189.502,123.104c-0.047-0.063-70.466-96.323-70.514-96.388
		C106.958,10.545,87.705,0.066,66,0.066c-36.451,0-66,29.549-66,66c0,14.831,4.893,28.518,13.15,39.538
		c0.049,0.067,45.933,62.786,54.864,74.995c13.957,19.081,26.241,38.503,50.254,45.473c5.92,1.718,12.219,2.576,18.388,2.576
		c36.451,0,66-29.549,66-66C202.656,147.814,197.762,134.125,189.502,123.104z"/>
	<circle fill="#97CF91" cx="66.143" cy="66" r="66"/>
	<path display="none" fill="#FFFFFF" d="M132.791,114.825c-0.053-0.079-62.146-85.729-63.996-87.804
		c-1.81-2.031-4.451-3.047-7.922-3.047h-8.476l-0.005,5.391l-3.928-5.391h-5.263c0,0,0,13.736-0.02,13.736l-9.952-13.736h-4.376
		v9.695c-0.023-0.034-4.74-6.49-4.874-6.648c-1.81-2.031-4.451-3.047-7.922-3.047H7.58v5.738l-4.155-5.738h-5.208l-0.011,10.781
		l-7.855-10.781h-5.208v29.972c0,3.398,0.738,6.002,2.216,7.811c0.007,0.009,63.289,86.86,63.322,86.904
		c0.008,0.011,0.107,0.154,0.15,0.208c0.554,0.739,1.385,1.432,2.493,2.078c1.108,0.646,2.585,0.97,4.432,0.97
		c1.846,0,3.324-0.323,4.432-0.97c1.108-0.646,1.939-1.338,2.493-2.078c0.755-0.925,1.314-2.061,1.684-3.386l4.688,6.433h5.208
		v-17.784h3.142v0.048l12.923,17.735h5.208c0,0,0-13.736,0.02-13.736l9.952,13.736h4.432c0,0,0-5.564,0.006-5.564l3.927,5.564h5.208
		v-17.784h3.269c3.508,0,6.149-1.033,7.922-3.102c1.662-1.92,2.493-4.746,2.493-8.477
		C134.761,119.306,134.102,116.732,132.791,114.825z"/>
	<path fill="#97C68F" d="M130.464,80.848c-12.021-16.513-22.187-30.422-22.918-31.243c-1.81-2.031-4.451-3.047-7.922-3.047h-8.476
		l-0.005,5.391l-3.928-5.391h-5.263c0,0,0,13.736-0.02,13.736l-9.952-13.736h-4.376v9.695c-0.023-0.034-4.74-6.49-4.874-6.648
		c-1.81-2.031-4.451-3.047-7.922-3.047H46.33v5.738l-4.155-5.738h-5.208l-0.011,10.781l-7.855-10.781h-5.208v29.972
		c0,3.398,0.738,6.002,2.216,7.811c0.003,0.004,17.847,24.495,34.611,47.504c1.79,0.146,3.595,0.24,5.422,0.24
		C97.515,132.083,123.756,110.187,130.464,80.848z"/>
	<path fill="#FFFFFF" d="M32.993,87.362c-1.847,0-3.324-0.323-4.432-0.97c-1.108-0.646-1.939-1.338-2.493-2.078
		c-1.478-1.809-2.216-4.413-2.216-7.811V46.532h5.208v29.972c0,1.404,0.139,2.493,0.416,3.269c0.277,0.775,0.618,1.339,1.025,1.689
		c0.406,0.352,0.831,0.554,1.274,0.609c0.443,0.056,0.849,0.083,1.219,0.083c0.369,0,0.775-0.027,1.219-0.083
		c0.443-0.055,0.867-0.258,1.274-0.609c0.406-0.351,0.748-0.914,1.025-1.689c0.277-0.776,0.416-1.865,0.416-3.269V46.532h5.208
		v29.972c0,3.398-0.739,6.002-2.216,7.811c-0.554,0.739-1.385,1.432-2.493,2.078C36.317,87.039,34.839,87.362,32.993,87.362z"/>
	<path fill="#FFFFFF" d="M51.497,87.362h-5.208v-40.83h8.476c3.471,0,6.112,1.017,7.922,3.047c1.662,1.958,2.493,4.764,2.493,8.42
		c0,3.731-0.831,6.557-2.493,8.477c-1.773,2.069-4.414,3.102-7.922,3.102h-3.269V87.362z M51.497,64.315h3.269
		c1.44,0,2.418-0.167,2.937-0.499c0.517-0.333,0.849-0.59,0.997-0.776c0.812-0.849,1.219-2.529,1.219-5.042
		c0-1.33-0.111-2.4-0.333-3.213c-0.222-0.812-0.545-1.44-0.969-1.884c-0.425-0.443-0.961-0.738-1.607-0.886
		c-0.646-0.147-1.395-0.222-2.244-0.222h-3.269V64.315z"/>
	<path fill="#FFFFFF" d="M72.769,87.362h-5.208v-40.83h4.376L81.91,71.24V46.532h5.263v40.83h-4.432l-9.972-24.708V87.362z"/>
	<path fill="#FFFFFF" d="M96.313,87.362h-5.208v-40.83h8.476c3.471,0,6.112,1.017,7.922,3.047c1.662,1.958,2.493,4.764,2.493,8.42
		c0,3.731-0.831,6.557-2.493,8.477c-1.773,2.069-4.414,3.102-7.922,3.102h-3.269V87.362z M96.313,64.315h3.269
		c1.44,0,2.418-0.167,2.937-0.499c0.517-0.333,0.849-0.59,0.997-0.776c0.812-0.849,1.219-2.529,1.219-5.042
		c0-1.33-0.111-2.4-0.333-3.213c-0.222-0.812-0.545-1.44-0.969-1.884c-0.425-0.443-0.961-0.738-1.607-0.886
		c-0.646-0.147-1.395-0.222-2.244-0.222h-3.269V64.315z"/>
</g>
</svg>
